<svg data-v-1084b650="" xmlns="http://www.w3.org/2000/svg" viewBox="0 0 300 300"><!----> <!----> <rect data-v-1084b650="" fill="#E3D559" x="0" y="0" width="300px" height="300px" class="logo-background-square"></rect> <!----> <g data-v-1084b650="" id="bb6918e6-91d1-6f57-e182-1dc81b3d715d" fill="#ffffff" transform="matrix(2.8,0,0,2.8,102.43846074342729,126.77400169372558)"><path d="M4.55 7.31L8.66 7.31L8.66 13.78L6.32 13.78L6.13 12.38L6.10 12.38L6.10 12.38Q5.97 13.30 5.38 13.62L5.38 13.62L5.38 13.62Q4.80 13.94 4.08 13.94L4.08 13.94L4.08 13.94Q2.88 13.94 2.06 13.20L2.06 13.20L2.06 13.20Q1.24 12.47 0.84 11.18L0.84 11.18L0.84 11.18Q0.44 9.89 0.44 8.23L0.44 8.23L0.44 8.23Q0.44 5.60 1.45 4.12L1.45 4.12L1.45 4.12Q2.45 2.63 4.70 2.63L4.70 2.63L4.70 2.63Q5.97 2.63 6.82 3.09L6.82 3.09L6.82 3.09Q7.68 3.55 8.11 4.32L8.11 4.32L8.11 4.32Q8.54 5.08 8.59 6.02L8.59 6.02L6.06 6.45L6.06 6.45Q6.03 5.70 5.75 5.34L5.75 5.34L5.75 5.34Q5.46 4.98 4.85 4.98L4.85 4.98L4.85 4.98Q4.21 4.98 3.91 5.43L3.91 5.43L3.91 5.43Q3.61 5.87 3.53 6.54L3.53 6.54L3.53 6.54Q3.46 7.21 3.46 8.29L3.46 8.29L3.46 8.29Q3.46 9.28 3.54 9.93L3.54 9.93L3.54 9.93Q3.63 10.58 3.91 10.98L3.91 10.98L3.91 10.98Q4.19 11.38 4.74 11.38L4.74 11.38L4.74 11.38Q5.29 11.38 5.54 11.01L5.54 11.01L5.54 11.01Q5.80 10.64 5.80 10.08L5.80 10.08L5.80 9.42L4.55 9.42L4.55 7.31ZM13.22 13.96L13.22 13.96Q11.49 13.96 10.56 12.91L10.56 12.91L10.56 12.91Q9.63 11.87 9.63 9.73L9.63 9.73L9.63 9.73Q9.63 7.55 10.55 6.51L10.55 6.51L10.55 6.51Q11.48 5.48 13.22 5.48L13.22 5.48L13.22 5.48Q14.98 5.48 15.89 6.51L15.89 6.51L15.89 6.51Q16.80 7.54 16.80 9.73L16.80 9.73L16.80 9.73Q16.80 13.96 13.22 13.96L13.22 13.96ZM13.19 11.81L13.19 11.81Q13.45 11.81 13.60 11.65L13.60 11.65L13.60 11.65Q13.76 11.49 13.85 11.04L13.85 11.04L13.85 11.04Q13.94 10.58 13.94 9.71L13.94 9.71L13.94 9.71Q13.94 8.80 13.85 8.35L13.85 8.35L13.85 8.35Q13.76 7.90 13.60 7.75L13.60 7.75L13.60 7.75Q13.45 7.61 13.19 7.61L13.19 7.61L13.19 7.61Q12.95 7.61 12.81 7.76L12.81 7.76L12.81 7.76Q12.66 7.90 12.57 8.36L12.57 8.36L12.57 8.36Q12.49 8.81 12.49 9.71L12.49 9.71L12.49 9.71Q12.49 10.58 12.57 11.03L12.57 11.03L12.57 11.03Q12.66 11.49 12.81 11.65L12.81 11.65L12.81 11.65Q12.95 11.81 13.19 11.81L13.19 11.81ZM21.92 2.80L24.93 2.80L24.93 13.78L22.24 13.78L22.11 12.61L22.02 12.61L22.02 12.61Q21.94 12.99 21.67 13.30L21.67 13.30L21.67 13.30Q21.40 13.60 21.01 13.78L21.01 13.78L21.01 13.78Q20.62 13.96 20.21 13.96L20.21 13.96L20.21 13.96Q19.40 13.96 18.77 13.52L18.77 13.52L18.77 13.52Q18.14 13.09 17.76 12.14L17.76 12.14L17.76 12.14Q17.39 11.19 17.39 9.71L17.39 9.71L17.39 9.71Q17.39 8.23 17.75 7.28L17.75 7.28L17.75 7.28Q18.12 6.34 18.73 5.91L18.73 5.91L18.73 5.91Q19.35 5.48 20.13 5.48L20.13 5.48L20.13 5.48Q20.54 5.48 20.90 5.66L20.90 5.66L20.90 5.66Q21.26 5.84 21.51 6.16L21.51 6.16L21.51 6.16Q21.75 6.47 21.85 6.88L21.85 6.88L21.92 6.88L21.92 2.80ZM21.19 11.49L21.19 11.49Q21.57 11.49 21.77 11.04L21.77 11.04L21.77 11.04Q21.96 10.60 21.96 9.68L21.96 9.68L21.96 9.68Q21.96 7.94 21.19 7.94L21.19 7.94L21.19 7.94Q20.79 7.94 20.60 8.37L20.60 8.37L20.60 8.37Q20.41 8.80 20.41 9.68L20.41 9.68L20.41 9.68Q20.41 10.60 20.60 11.04L20.60 11.04L20.60 11.04Q20.79 11.49 21.19 11.49L21.19 11.49ZM29.52 13.96L29.52 13.96Q27.79 13.96 26.86 12.91L26.86 12.91L26.86 12.91Q25.93 11.87 25.93 9.73L25.93 9.73L25.93 9.73Q25.93 7.55 26.86 6.51L26.86 6.51L26.86 6.51Q27.79 5.48 29.52 5.48L29.52 5.48L29.52 5.48Q31.28 5.48 32.19 6.51L32.19 6.51L32.19 6.51Q33.10 7.54 33.10 9.73L33.10 9.73L33.10 9.73Q33.10 13.96 29.52 13.96L29.52 13.96ZM29.49 11.81L29.49 11.81Q29.75 11.81 29.91 11.65L29.91 11.65L29.91 11.65Q30.06 11.49 30.15 11.04L30.15 11.04L30.15 11.04Q30.24 10.58 30.24 9.71L30.24 9.71L30.24 9.71Q30.24 8.80 30.15 8.35L30.15 8.35L30.15 8.35Q30.06 7.90 29.91 7.75L29.91 7.75L29.91 7.75Q29.75 7.61 29.49 7.61L29.49 7.61L29.49 7.61Q29.26 7.61 29.11 7.76L29.11 7.76L29.11 7.76Q28.96 7.90 28.88 8.36L28.88 8.36L28.88 8.36Q28.79 8.81 28.79 9.71L28.79 9.71L28.79 9.71Q28.79 10.58 28.88 11.03L28.88 11.03L28.88 11.03Q28.96 11.49 29.11 11.65L29.11 11.65L29.11 11.65Q29.26 11.81 29.49 11.81L29.49 11.81ZM37.25 13.96L37.25 13.96Q35.52 13.96 34.59 12.91L34.59 12.91L34.59 12.91Q33.65 11.87 33.65 9.73L33.65 9.73L33.65 9.73Q33.65 7.55 34.58 6.51L34.58 6.51L34.58 6.51Q35.51 5.48 37.25 5.48L37.25 5.48L37.25 5.48Q39.01 5.48 39.92 6.51L39.92 6.51L39.92 6.51Q40.82 7.54 40.82 9.73L40.82 9.73L40.82 9.73Q40.82 13.96 37.25 13.96L37.25 13.96ZM37.21 11.81L37.21 11.81Q37.47 11.81 37.63 11.65L37.63 11.65L37.63 11.65Q37.79 11.49 37.88 11.04L37.88 11.04L37.88 11.04Q37.97 10.58 37.97 9.71L37.97 9.71L37.97 9.71Q37.97 8.80 37.88 8.35L37.88 8.35L37.88 8.35Q37.79 7.90 37.63 7.75L37.63 7.75L37.63 7.75Q37.47 7.61 37.21 7.61L37.21 7.61L37.21 7.61Q36.98 7.61 36.84 7.76L36.84 7.76L36.84 7.76Q36.69 7.90 36.60 8.36L36.60 8.36L36.60 8.36Q36.52 8.81 36.52 9.71L36.52 9.71L36.52 9.71Q36.52 10.58 36.60 11.03L36.60 11.03L36.60 11.03Q36.69 11.49 36.84 11.65L36.84 11.65L36.84 11.65Q36.98 11.81 37.21 11.81L37.21 11.81ZM45.95 2.80L48.96 2.80L48.96 13.78L46.27 13.78L46.14 12.61L46.05 12.61L46.05 12.61Q45.97 12.99 45.70 13.30L45.70 13.30L45.70 13.30Q45.42 13.60 45.04 13.78L45.04 13.78L45.04 13.78Q44.65 13.96 44.24 13.96L44.24 13.96L44.24 13.96Q43.43 13.96 42.80 13.52L42.80 13.52L42.80 13.52Q42.16 13.09 41.79 12.14L41.79 12.14L41.79 12.14Q41.42 11.19 41.42 9.71L41.42 9.71L41.42 9.71Q41.42 8.23 41.78 7.28L41.78 7.28L41.78 7.28Q42.14 6.34 42.76 5.91L42.76 5.91L42.76 5.91Q43.37 5.48 44.15 5.48L44.15 5.48L44.15 5.48Q44.57 5.48 44.93 5.66L44.93 5.66L44.93 5.66Q45.29 5.84 45.53 6.16L45.53 6.16L45.53 6.16Q45.78 6.47 45.88 6.88L45.88 6.88L45.95 6.88L45.95 2.80ZM45.22 11.49L45.22 11.49Q45.60 11.49 45.79 11.04L45.79 11.04L45.79 11.04Q45.99 10.60 45.99 9.68L45.99 9.68L45.99 9.68Q45.99 7.94 45.22 7.94L45.22 7.94L45.22 7.94Q44.82 7.94 44.63 8.37L44.63 8.37L44.63 8.37Q44.44 8.80 44.44 9.68L44.44 9.68L44.44 9.68Q44.44 10.60 44.63 11.04L44.63 11.04L44.63 11.04Q44.82 11.49 45.22 11.49L45.22 11.49ZM50.42 13.78L50.42 2.80L53.42 2.80L53.42 13.78L50.42 13.78ZM59.15 10.88L61.33 11.31L61.33 11.31Q61.02 12.76 60.20 13.36L60.20 13.36L60.20 13.36Q59.38 13.96 58.12 13.96L58.12 13.96L58.12 13.96Q57.09 13.96 56.26 13.53L56.26 13.53L56.26 13.53Q55.42 13.10 54.92 12.17L54.92 12.17L54.92 12.17Q54.41 11.24 54.41 9.79L54.41 9.79L54.41 9.79Q54.41 7.66 55.30 6.57L55.30 6.57L55.30 6.57Q56.18 5.48 57.91 5.48L57.91 5.48L57.91 5.48Q59.53 5.48 60.41 6.36L60.41 6.36L60.41 6.36Q61.28 7.25 61.28 9.06L61.28 9.06L61.28 9.06Q61.28 9.33 61.26 9.71L61.26 9.71L61.26 9.71Q61.24 10.08 61.19 10.33L61.19 10.33L57.27 10.33L57.27 10.33Q57.24 10.77 57.38 11.08L57.38 11.08L57.38 11.08Q57.52 11.39 57.77 11.54L57.77 11.54L57.77 11.54Q58.02 11.68 58.30 11.68L58.30 11.68L58.30 11.68Q58.65 11.68 58.86 11.49L58.86 11.49L58.86 11.49Q59.07 11.30 59.15 10.88L59.15 10.88ZM58.07 7.61L58.07 7.61Q57.67 7.61 57.51 7.88L57.51 7.88L57.51 7.88Q57.35 8.14 57.34 8.59L57.34 8.59L58.84 8.59L58.84 8.59Q58.80 8.14 58.64 7.88L58.64 7.88L58.64 7.88Q58.47 7.61 58.07 7.61L58.07 7.61Z"></path></g> <!----> <g data-v-1084b650="" id="3813c347-fc11-e1d5-cece-769a540ec7a0" stroke="none" fill="#48A9DC" transform="matrix(0.1878004285222636,0,0,0.1878004285222636,37.746393851543274,121.82880882165868)"><svg xmlns:x="http://ns.adobe.com/Extensibility/1.0/" xmlns:i="http://ns.adobe.com/AdobeIllustrator/10.0/" xmlns:graph="http://ns.adobe.com/Graphs/1.0/" xmlns="http://www.w3.org/2000/svg" xmlns:xlink="http://www.w3.org/1999/xlink" xmlns:a="http://ns.adobe.com/AdobeSVGViewerExtensions/3.0/" version="1.1" x="0px" y="0px" viewBox="0 0 100 100" enable-background="new 0 0 100 100" xml:space="preserve"><path d="M85.261,22.716c-2.868,0-5.565,1.117-7.593,3.146c-0.278,0.278-0.453,0.619-0.533,0.977  c-0.355,0.08-0.695,0.254-0.973,0.532L32.629,70.902c-0.205,0.205-0.362,0.451-0.463,0.723l-5.193,14.099  c-1.111,3.016-0.077,4.666,0.638,5.382c0.489,0.489,1.415,1.128,2.916,1.127c0.694,0,1.512-0.137,2.466-0.488l14.058-5.18  c0.279-0.096,0.54-0.254,0.763-0.477v0l43.535-43.533c0.27-0.27,0.45-0.609,0.532-0.975c0.356-0.08,0.696-0.254,0.974-0.531  C94.883,39.02,96,36.323,96,33.454s-1.117-5.565-3.146-7.593C90.826,23.833,88.129,22.716,85.261,22.716z M46.398,81.845  l-5.322-5.324c-0.781-0.781-2.047-0.781-2.828,0c-0.781,0.781-0.781,2.047,0,2.829l4.526,4.528l-11.165,4.114  c-0.583,0.215-0.945,0.239-1.12,0.236c-0.007-0.181,0.021-0.538,0.236-1.121c0.001,0,0.001,0,0.001,0l5.041-13.687l41.809-41.808  l9.529,9.528L46.398,81.845z M90.025,38.22c-0.031,0.032-0.054,0.068-0.083,0.102l-9.549-9.548c0.033-0.029,0.07-0.052,0.103-0.083  c1.272-1.272,2.965-1.974,4.765-1.974s3.492,0.701,4.765,1.974C91.299,29.962,92,31.654,92,33.454  C92,35.254,91.299,36.947,90.025,38.22z"></path><path d="M21.163,84.201c-6.968-3.731-10.719-9.261-10.292-15.171c0.497-6.896,6.641-13.293,16.032-16.694  c10.389-3.761,16.426-13.327,14.683-23.261c-1.032-5.884-4.712-11.182-10.36-14.919C24.912,9.979,16.189,7.771,6,7.771  c-1.104,0-2,0.896-2,2s0.896,2,2,2c13.142,0,29.315,4.713,31.646,17.995c1.423,8.113-3.441,15.671-12.104,18.809  C14.479,52.58,7.504,60.119,6.881,68.741c-0.545,7.556,3.972,14.476,12.394,18.986c0.301,0.161,0.624,0.237,0.942,0.237  c0.714,0,1.404-0.383,1.765-1.057C22.503,85.934,22.137,84.722,21.163,84.201z"></path></svg></g></svg>