<svg data-v-1084b650="" xmlns="http://www.w3.org/2000/svg" viewBox="0 0 300 300"><!----> <!----> <rect data-v-1084b650="" fill="#E3D559" x="0" y="0" width="300px" height="300px" class="logo-background-square"></rect> <!----> <!----> <g data-v-1084b650="" id="73e18b4d-7b43-6f87-a096-cd694ad9e181" fill="#48A9DC" stroke="none" transform="matrix(0.7499999999999998,0,0,0.7499999999999998,37.50000000000003,37.49549961090091)"><svg xmlns:x="http://ns.adobe.com/Extensibility/1.0/" xmlns:i="http://ns.adobe.com/AdobeIllustrator/10.0/" xmlns:graph="http://ns.adobe.com/Graphs/1.0/" xmlns="http://www.w3.org/2000/svg" xmlns:xlink="http://www.w3.org/1999/xlink" xmlns:a="http://ns.adobe.com/AdobeSVGViewerExtensions/3.0/" version="1.1" x="0px" y="0px" viewBox="0 0 100 100" enable-background="new 0 0 100 100" xml:space="preserve"><path d="M85.261,22.716c-2.868,0-5.565,1.117-7.593,3.146c-0.278,0.278-0.453,0.619-0.533,0.977  c-0.355,0.08-0.695,0.254-0.973,0.532L32.629,70.902c-0.205,0.205-0.362,0.451-0.463,0.723l-5.193,14.099  c-1.111,3.016-0.077,4.666,0.638,5.382c0.489,0.489,1.415,1.128,2.916,1.127c0.694,0,1.512-0.137,2.466-0.488l14.058-5.18  c0.279-0.096,0.54-0.254,0.763-0.477v0l43.535-43.533c0.27-0.27,0.45-0.609,0.532-0.975c0.356-0.08,0.696-0.254,0.974-0.531  C94.883,39.02,96,36.323,96,33.454s-1.117-5.565-3.146-7.593C90.826,23.833,88.129,22.716,85.261,22.716z M46.398,81.845  l-5.322-5.324c-0.781-0.781-2.047-0.781-2.828,0c-0.781,0.781-0.781,2.047,0,2.829l4.526,4.528l-11.165,4.114  c-0.583,0.215-0.945,0.239-1.12,0.236c-0.007-0.181,0.021-0.538,0.236-1.121c0.001,0,0.001,0,0.001,0l5.041-13.687l41.809-41.808  l9.529,9.528L46.398,81.845z M90.025,38.22c-0.031,0.032-0.054,0.068-0.083,0.102l-9.549-9.548c0.033-0.029,0.07-0.052,0.103-0.083  c1.272-1.272,2.965-1.974,4.765-1.974s3.492,0.701,4.765,1.974C91.299,29.962,92,31.654,92,33.454  C92,35.254,91.299,36.947,90.025,38.22z"></path><path d="M21.163,84.201c-6.968-3.731-10.719-9.261-10.292-15.171c0.497-6.896,6.641-13.293,16.032-16.694  c10.389-3.761,16.426-13.327,14.683-23.261c-1.032-5.884-4.712-11.182-10.36-14.919C24.912,9.979,16.189,7.771,6,7.771  c-1.104,0-2,0.896-2,2s0.896,2,2,2c13.142,0,29.315,4.713,31.646,17.995c1.423,8.113-3.441,15.671-12.104,18.809  C14.479,52.58,7.504,60.119,6.881,68.741c-0.545,7.556,3.972,14.476,12.394,18.986c0.301,0.161,0.624,0.237,0.942,0.237  c0.714,0,1.404-0.383,1.765-1.057C22.503,85.934,22.137,84.722,21.163,84.201z"></path></svg></g></svg>